<svg width="1440" height="760" viewBox="0 0 1440 760" fill="none" xmlns="http://www.w3.org/2000/svg" role="img" aria-labelledby="title desc">
  <title id="title">Ayre storefront hero</title>
  <desc id="desc">Curated boutique shelf with apparel, tote bag, ceramics, sunglasses, and lifestyle objects.</desc>
  <rect width="1440" height="760" fill="#f7f1e8"/>
  <rect x="830" y="96" width="500" height="560" rx="4" fill="#e2e9e7"/>
  <rect x="884" y="156" width="392" height="20" fill="#315c4e"/>
  <rect x="884" y="358" width="392" height="20" fill="#315c4e"/>
  <rect x="884" y="550" width="392" height="20" fill="#315c4e"/>
  <path d="M970 256c0-48 38-86 86-86h42c48 0 86 38 86 86v92H970v-92Z" fill="#fbfaf7"/>
  <path d="M1019 203c16-21 46-31 75-20 30 10 51 38 51 72v93h-126V203Z" fill="#9da891"/>
  <path d="M926 448c24-45 82-66 132-42l55 26c49 24 70 82 47 132l-10 21-234-115 10-22Z" fill="#b85c38"/>
  <path d="M1022 438c26-19 64-16 88 7l28 27-88 91-28-27c-27-26-27-70 0-98Z" fill="#f1d8bd"/>
  <rect x="1164" y="424" width="72" height="98" rx="36" fill="#171717"/>
  <rect x="1244" y="424" width="72" height="98" rx="36" fill="#171717"/>
  <path d="M1230 470h26" stroke="#171717" stroke-width="14" stroke-linecap="round"/>
  <path d="M912 646c0-47 38-85 85-85h120c47 0 85 38 85 85v20H912v-20Z" fill="#dce8ec"/>
  <path d="M1044 566c22-18 56-16 76 5l26 28-118 109-26-28c-28-30-25-78 42-114Z" fill="#ffffff"/>
  <path d="M727 194c-18 102-6 189 36 260 40 68 110 115 209 141" stroke="#315c4e" stroke-width="12" stroke-linecap="round"/>
  <path d="M750 191c66 27 113 70 142 128 28 56 35 122 19 198" stroke="#b85c38" stroke-width="10" stroke-linecap="round"/>
  <path d="M675 590c84 10 171 29 260 58 95 31 178 36 250 15" stroke="#c69a6b" stroke-width="22" stroke-linecap="round"/>
  <circle cx="1142" cy="259" r="55" fill="#d7b996"/>
  <circle cx="1142" cy="259" r="32" fill="#fbfaf7"/>
  <rect x="1200" y="216" width="56" height="96" rx="28" fill="#7c8f99"/>
  <rect x="733" y="130" width="112" height="420" rx="56" fill="#315c4e" opacity=".16"/>
  <path d="M842 189c-48 41-73 94-75 159-3 69 22 124 75 166" stroke="#315c4e" stroke-width="18" stroke-linecap="round"/>
  <rect x="627" y="544" width="740" height="42" rx="21" fill="#171717" opacity=".1"/>
</svg>
